{"title":"The Watch 2012 TS XviD READNFO - MARTiNE","uid":7536214,"size":1317416927,"categoryP":"video","categoryS":"movies","magnet":"?xt=urn:btih:282234891779530bbde23faab9dc76a14280689d&amp;dn=The+Watch+2012+TS+XviD+READNFO+-+MARTiNE&amp;tr=udp%3A%2F%2Ftracker.openbittorrent.com%3A80&amp;tr=udp%3A%2F%2Fopen.demonii.com%3A1337&amp;tr=udp%3A%2F%2Ftracker.coppersurfer.tk%3A6969&amp;tr=udp%3A%2F%2Fexodus.desync.com%3A6969","seeders":1,"leechers":1,"uploader":"Hackulus","files":-1,"time":1345095093,"description":"\n\nThe Watch 2012 TS XviD READNFO - MARTiNE\n\nVideo\nID                                       : 0\nFormat                                   : MPEG-4 Visual\nFormat profile                           : Advanced Simple@L5\nFormat settings, BVOP                    : 2\nFormat settings, QPel                    : No\nFormat settings, GMC                     : No warppoints\nFormat settings, Matrix                  : Default (H.263)\nMuxing mode                              : Packed bitstream\nCodec ID                                 : XVID\nCodec ID/Hint                            : XviD\nDuration                                 : 1h 36mn\nBit rate                                 : 1 658 Kbps\nWidth                                    : 720 pixels\nHeight                                   : 236 pixels\nDisplay aspect ratio                     : 3.051\nFrame rate                               : 25.000 fps\nColor space                              : YUV\nChroma subsampling                       : 4:2:0\nBit depth                                : 8 bits\nScan type                                : Progressive\nCompression mode                         : Lossy\nBits/(Pixel*Frame)                       : 0.390\nStream size                              : 1.12 GiB (92%)\nWriting library                          : XviD 64\n\nAudio\nID                                       : 1\nFormat                                   : MPEG Audio\nFormat version                           : Version 1\nFormat profile                           : Layer 3\nMode                                     : Joint stereo\nMode extension                           : MS Stereo\nCodec ID                                 : 55\nCodec ID/Hint                            : MP3\nDuration                                 : 1h 36mn\nBit rate mode                            : Constant\nBit rate                                 : 128 Kbps\nChannel(s)                               : 2 channels\nSampling rate                            : 44.1 KHz\nCompression mode                         : Lossy\nStream size                              : 88.5 MiB (7%)\nAlignment                                : Split accross interleaves\nInterleave, duration                     : 40 ms (1.00 video frame)\nWriting library                          : LAME3.99r\n\nSources: SAiNT/UNiQUE\n\nNotes:\nVideo was cammed at an angle with a chair in lower half\ncropped chair and wass left with what we have here hence the AR\nnot thee best LiNE but filtered and synced to encode\n\n","torrent":{"xt":"urn:btih:282234891779530bbde23faab9dc76a14280689d","amp;dn":"The+Watch+2012+TS+XviD+READNFO+-+MARTiNE","amp;tr":["udp%3A%2F%2Ftracker.openbittorrent.com%3A80","udp%3A%2F%2Fopen.demonii.com%3A1337","udp%3A%2F%2Ftracker.coppersurfer.tk%3A6969","udp%3A%2F%2Fexodus.desync.com%3A6969"],"infoHash":"282234891779530bbde23faab9dc76a14280689d","infoHashBuffer":{"type":"Buffer","data":[40,34,52,137,23,121,83,11,189,226,63,170,185,220,118,161,66,128,104,157]},"announce":[],"urlList":[]}}